<?xml version="1.0"?><svg width="620" height="360" xmlns="http://www.w3.org/2000/svg">
 <title>truck 3c</title>
 <metadata id="metadata4477">image/svg+xmlSymbol: LastkraftwagenPurodha Blissenbachhttp://commons.mediawiki.org/wiki/Image:Zusatzzeichen_1048-12.svg</metadata>

 <g>
  <title>Layer 1</title>
  <path fill="white" fill-rule="nonzero" stroke-linecap="round" marker-start="none" marker-mid="none" marker-end="none" stroke-miterlimit="4" stroke-dashoffset="0" id="path5404" d="m-62.191151,821.639282l0,97.72522l24.410049,0l0,-96.15741l-24.410049,-1.56781z"/>
  <path fill="white" fill-rule="nonzero" stroke-linecap="round" marker-start="none" marker-mid="none" marker-end="none" stroke-miterlimit="4" stroke-dashoffset="0" id="path5425" d="m34.92593,819.089478l0,97.725159l24.410049,0l0,-96.15741l-24.410049,-1.567749z"/>
  <g id="g5452" transform="matrix(0.617065, 0, 0, 0.617065, 3.20484, 32.4973)">
   <path fill="#ff0000" fill-rule="evenodd" id="path5439" d="m294.163605,77.093483l0,248.265587l391.932037,0.320587c-22.999756,18.790863 -37.358887,44.691071 -37.171204,78.685028l-389.065674,-0.231476c-3.726959,-131.883148 -190.836723,-131.434418 -194.902489,-0.762329c-28.102852,-0.209656 -32.001038,-6.592346 -32.27198,-32.479645l0,-99c-0.352859,-44.242157 -5.878059,-15.037384 26.872139,-98.934708c33.698051,-89.43354 24.408104,-81.167068 54.887787,-83.475174l179.719383,-12.387871zm-77.845535,146.382729l1.551163,-105.479202l-100.050117,6.204666c-18.239662,1.221909 -18.391457,1.336411 -24.818642,22.491882l-25.594215,68.251236c-8.598244,20.93425 -7.229702,27.102905 16.287224,24.04306l132.624588,-15.511642zm748.696274,102.391068l0.190552,55.777191l-64.607483,22.869904l-56.726624,-0.036255c0.230896,-32.342529 -13.210022,-59.544464 -37.041565,-78.652649l158.18512,0.041809z"/>
   <rect fill="#bfbfbf" id="rect5441" y="2.435238" x="335.206605" height="301.70154" width="631.32404"/>
   <circle fill="black" id="circle5443" r="77" cy="402.276555" cx="162.379425"/>
   <circle fill="black" id="circle5445" r="77" cy="402.276555" cx="746.379425"/>
  </g>
 </g>
</svg>